<?xml version="1.0" standalone="no"?>
<!DOCTYPE svg PUBLIC "-//W3C//DTD SVG 20010904//EN"
 "http://www.w3.org/TR/2001/REC-SVG-20010904/DTD/svg10.dtd">
<svg version="1.0" xmlns="http://www.w3.org/2000/svg"
 width="700.000000pt" height="700.000000pt" viewBox="0 0 700.000000 700.000000"
 preserveAspectRatio="xMidYMid meet">
<metadata>
Created by potrace 1.11, written by Peter Selinger 2001-2013
</metadata>
<g transform="translate(0.000000,700.000000) scale(0.100000,-0.100000)"
fill="#000000" stroke="none">
<path d="M3270 6409 c-160 -17 -195 -21 -200 -24 -3 -1 -27 -6 -54 -9 -41 -6
-159 -29 -201 -40 -5 -2 -23 -6 -40 -10 -16 -5 -79 -24 -140 -43 -796 -254
-1436 -888 -1778 -1763 -49 -126 -110 -310 -104 -316 2 -2 32 7 68 21 58 23
124 45 157 51 7 1 36 9 65 18 64 18 232 52 307 62 30 3 64 8 75 9 11 1 27 3
37 4 10 0 42 44 80 107 368 614 964 985 1708 1061 140 14 495 7 601 -12 13 -3
40 -7 59 -9 151 -22 467 -112 548 -156 9 -5 64 -32 122 -61 58 -28 117 -60
132 -70 14 -11 29 -19 32 -19 10 0 186 -128 251 -183 178 -150 350 -357 476
-569 28 -49 56 -88 63 -89 6 0 22 -2 36 -4 14 -2 59 -8 100 -14 186 -25 403
-81 563 -146 23 -10 22 0 -14 113 -179 555 -496 1054 -900 1418 -430 387 -966
616 -1565 670 -105 9 -402 11 -484 3z"/>
<path d="M3379 4148 c-1 -7 -2 -73 -3 -147 l-1 -135 -123 -17 c-67 -10 -164
-29 -214 -43 -51 -14 -93 -24 -94 -23 0 1 -25 61 -54 132 -29 72 -54 131 -55
133 -7 10 -225 -84 -225 -97 0 -5 24 -67 53 -138 l54 -130 -46 -24 c-68 -36
-188 -115 -256 -170 l-61 -47 -105 103 -105 104 -64 -62 c-36 -35 -75 -75 -88
-89 l-23 -25 101 -100 c55 -55 100 -104 100 -108 0 -4 -31 -48 -69 -98 -37
-51 -89 -129 -115 -173 l-47 -82 -57 23 c-31 13 -92 38 -135 56 -77 33 -79 33
-90 14 -6 -11 -12 -22 -12 -25 -1 -3 -9 -23 -19 -45 -30 -67 -57 -137 -54
-139 2 -1 62 -27 133 -57 84 -36 129 -61 129 -70 -1 -8 -13 -59 -28 -114 -14
-55 -27 -113 -30 -130 -9 -51 -19 -129 -20 -155 l-2 -25 -143 -2 c-78 0 -144
-3 -146 -5 -4 -4 -8 -150 -6 -214 l1 -32 133 0 c168 0 164 0 164 -14 1 -74 41
-291 68 -368 10 -30 11 -41 2 -48 -7 -5 -67 -31 -134 -58 -68 -27 -123 -54
-123 -60 0 -10 25 -73 74 -186 l16 -37 131 54 c72 30 135 55 139 55 4 0 20
-24 35 -52 40 -76 121 -195 171 -254 l43 -51 -107 -106 -106 -107 84 -85 c47
-47 87 -85 90 -85 4 0 92 86 197 191 l191 190 -77 77 c-126 126 -200 223 -272
359 -60 111 -129 292 -145 383 -2 14 -7 41 -10 60 -3 19 -8 46 -11 60 -13 71
-17 259 -8 360 9 95 44 246 81 349 117 331 356 617 664 797 69 41 206 106 230
110 3 0 14 4 25 8 45 18 73 26 130 40 139 35 200 41 385 40 156 -1 216 -9 380
-48 45 -11 155 -53 228 -87 375 -173 663 -494 793 -879 17 -51 32 -102 34
-112 2 -11 6 -27 9 -36 3 -9 8 -33 11 -52 3 -19 9 -60 14 -90 22 -140 4 -433
-35 -565 -9 -27 -17 -60 -20 -73 -8 -39 -73 -192 -116 -272 -62 -114 -153
-235 -254 -337 l-91 -92 190 -191 c104 -104 192 -190 196 -190 3 0 44 39 90
85 l85 86 -107 107 -107 107 27 30 c55 59 193 262 193 284 0 4 6 14 14 20 14
12 53 0 160 -48 99 -45 115 -50 124 -38 19 24 92 209 87 218 -4 5 -11 9 -17 9
-5 0 -64 23 -130 52 -106 46 -119 54 -113 72 20 70 55 210 60 247 3 24 8 55
10 69 2 14 5 42 7 63 2 43 -12 39 181 39 l118 -1 -3 126 -3 126 -142 -1 -142
-1 -5 27 c-2 15 -8 50 -11 77 -12 92 -16 111 -44 219 -25 96 -26 108 -12 115
9 4 63 27 121 50 58 23 111 45 119 50 12 8 7 26 -24 105 -21 53 -43 103 -49
112 -10 13 -28 8 -145 -40 -74 -31 -135 -55 -136 -53 -1 1 -23 40 -50 87 -27
47 -74 118 -105 158 -97 130 -99 105 19 223 l102 102 -33 35 c-18 20 -58 59
-88 88 l-55 53 -104 -103 -104 -104 -97 74 c-54 41 -101 74 -105 74 -5 0 -16
6 -24 14 -9 8 -40 26 -68 41 -29 15 -53 33 -53 39 0 7 24 70 54 140 l55 127
-47 21 c-26 11 -78 33 -115 49 l-68 28 -10 -27 c-5 -15 -18 -45 -28 -67 -10
-22 -31 -70 -46 -107 -16 -38 -34 -68 -40 -68 -7 0 -31 7 -54 15 -23 8 -76 22
-119 30 -79 17 -98 20 -192 31 -30 3 -57 8 -60 9 -3 2 -6 69 -5 149 l0 146
-122 0 c-91 0 -123 -3 -124 -12z"/>
<path d="M1489 3786 c-2 -2 -31 -6 -64 -10 -95 -10 -169 -26 -295 -63 -379
-112 -687 -342 -888 -664 -103 -163 -195 -411 -218 -584 -3 -27 -8 -59 -11
-70 -3 -11 -6 -90 -8 -176 -3 -216 23 -386 92 -584 159 -457 525 -823 984
-984 96 -34 207 -63 220 -59 4 2 -10 35 -33 73 -292 500 -425 1048 -384 1589
4 54 9 108 11 120 2 11 9 53 15 91 14 86 63 295 84 353 8 23 16 46 17 50 12
55 94 252 152 367 87 173 241 405 339 510 15 17 28 33 28 38 0 7 -33 10 -41 3z"/>
<path d="M5485 3758 c17 -18 32 -35 36 -38 3 -3 18 -23 34 -45 17 -22 33 -42
37 -45 26 -20 190 -287 251 -408 124 -250 221 -550 251 -782 3 -25 8 -54 10
-65 18 -89 24 -386 12 -533 -34 -401 -169 -814 -391 -1199 l-36 -61 85 23
c207 57 392 142 546 250 157 110 362 333 450 490 117 207 186 412 215 633 20
152 11 407 -19 547 -30 140 -64 242 -122 364 -85 180 -177 308 -322 449 -213
205 -471 339 -792 411 -79 18 -111 23 -230 36 l-44 5 29 -32z"/>
<path d="M3300 3294 c-521 -92 -921 -511 -983 -1029 -7 -55 -12 -118 -11 -140
3 -114 9 -174 20 -225 7 -30 15 -66 18 -80 8 -44 53 -164 83 -225 153 -310
438 -544 766 -630 119 -31 170 -38 292 -39 154 0 214 8 358 49 182 53 351 153
495 295 169 166 308 430 337 641 3 24 8 57 11 72 15 73 6 256 -17 374 -6 29
-10 54 -9 55 0 2 -10 35 -24 73 -67 194 -156 337 -297 475 -107 105 -124 119
-220 178 -113 68 -273 131 -379 148 -19 3 -53 9 -74 14 -59 13 -280 9 -366 -6z
m-78 -657 c101 -101 189 -190 196 -199 11 -13 -2 -30 -92 -120 -58 -57 -112
-111 -121 -118 -14 -12 -39 10 -215 185 l-199 199 117 118 c64 65 120 118 124
118 4 0 89 -82 190 -183z"/>
</g>
</svg>
